# xmcd
#
# Track frame offsets: 
#        150
#        3227
#        17549
#        33427
#        51475
#        67589
#        86008
#        101941
#        120318
#        136275
#
# Disc length: 2019 seconds
#
# Revision: 2
# Processed by: cddbd v1.5.2PL0 Copyright (c) Steve Scherf et al.
# Submitted via: ExactAudioCopyFreeDBPlugin 1.0
#
DISCID=7607e10a
DTITLE=Mayer Hawthorne - Man About Town
DYEAR=2016
DGENRE=Soul
TTITLE0=Man About Town
TTITLE1=Cosmic Love
TTITLE2=Book of Broken Hearts
TTITLE3=Breakfast in Bed
TTITLE4=Lingerie and Candlewax
TTITLE5=Fancy Clothes
TTITLE6=The Valley
TTITLE7=Love Like That
TTITLE8=Get You Back
TTITLE9=Out of Pocket
EXTD=
EXTT0=
EXTT1=
EXTT2=
EXTT3=
EXTT4=
EXTT5=
EXTT6=
EXTT7=
EXTT8=
EXTT9=
PLAYORDER=
